<svg width="76" height="16" viewBox="0 0 76 16" fill="none" xmlns="http://www.w3.org/2000/svg">
<g id="pin">
<path id="Oval" d="M8 16C12.4183 16 16 12.4183 16 8C16 3.58172 12.4183 0 8 0C3.58172 0 0 3.58172 0 8C0 12.4183 3.58172 16 8 16Z" fill="#171B1B"/>
<path id="Oval_2" d="M40 12C42.2091 12 44 10.2091 44 8C44 5.79086 42.2091 4 40 4C37.7909 4 36 5.79086 36 8C36 10.2091 37.7909 12 40 12Z" fill="#9EAD8D"/>
<path id="Oval_3" d="M72 12C74.2091 12 76 10.2091 76 8C76 5.79086 74.2091 4 72 4C69.7909 4 68 5.79086 68 8C68 10.2091 69.7909 12 72 12Z" fill="#9EAD8D"/>
</g>
</svg>
